<?xml version="1.0" standalone="no"?>
<!DOCTYPE svg PUBLIC "-//W3C//DTD SVG 20010904//EN"
 "http://www.w3.org/TR/2001/REC-SVG-20010904/DTD/svg10.dtd">
<svg version="1.0" xmlns="http://www.w3.org/2000/svg"
 width="485.000000pt" height="512.000000pt" viewBox="0 0 485.000000 512.000000"
 preserveAspectRatio="xMidYMid meet">

<g transform="translate(0.000000,512.000000) scale(0.100000,-0.100000)"
fill="#000000" stroke="none">
<path d="M0 2560 l0 -2560 2425 0 2425 0 0 2560 0 2560 -2425 0 -2425 0 0
-2560z m2451 2407 c-8 -8 -11 0 -10 29 1 39 1 39 11 11 7 -21 7 -32 -1 -40z
m5 -59 c-15 -49 -19 -98 -8 -98 6 0 13 12 15 28 2 15 4 5 3 -21 0 -27 -2 -44
-4 -38 -5 14 -32 15 -32 1 0 -5 5 -10 10 -10 6 0 10 -10 9 -22 0 -22 -1 -22
-11 2 -11 24 -12 128 -2 163 3 9 10 17 16 17 6 0 8 -9 4 -22z m20 -225 c-11
-11 -19 6 -11 24 8 17 8 17 12 0 3 -10 2 -21 -1 -24z m-29 -95 c-2 -24 -4 -7
-4 37 0 44 2 63 4 43 2 -21 2 -57 0 -80z m30 60 c-3 -8 -6 -5 -6 6 -1 11 2 17
5 13 3 -3 4 -12 1 -19z m13 -82 c0 -3 -4 -8 -10 -11 -5 -3 -10 -1 -10 4 0 6 5
11 10 11 6 0 10 -2 10 -4z m10 -188 c7 -84 14 -162 15 -173 1 -11 3 -31 4 -45
1 -23 7 -19 62 40 34 36 55 54 48 40 -7 -14 -11 -25 -9 -25 1 0 -9 -39 -24
-86 -14 -48 -26 -94 -26 -103 0 -9 -11 -21 -25 -26 -29 -11 -32 -26 -8 -52 15
-17 15 -19 -2 -38 -11 -13 -25 -18 -37 -14 -14 4 -18 0 -18 -20 0 -29 -5 -32
-24 -14 -11 10 -11 15 0 25 7 7 11 26 9 43 -3 24 0 30 15 30 26 0 26 30 0 37
-23 6 -26 28 -6 49 18 17 30 18 19 2 -11 -18 -12 -37 -3 -43 13 -8 71 16 67
29 -2 6 2 26 10 44 10 25 11 32 1 33 -10 0 -10 2 0 6 6 2 12 11 12 19 0 8 7
26 16 39 9 14 12 25 6 25 -6 0 -21 -18 -33 -40 -13 -22 -30 -40 -38 -40 -11
-1 -8 -5 8 -14 15 -8 20 -16 12 -20 -6 -4 -11 -2 -11 3 0 6 -4 11 -10 11 -5 0
-10 -7 -10 -15 0 -16 -27 -20 -46 -7 -14 9 -11 52 6 62 10 6 9 10 -4 17 -14 8
-15 14 -7 36 6 15 16 27 23 27 8 1 7 6 -4 14 -17 13 -26 32 -10 23 4 -3 8 8 9
24 1 16 -2 27 -6 24 -5 -2 -11 4 -14 15 -6 22 8 28 16 8 8 -18 7 44 -1 134 -4
42 -5 75 -1 73 3 -3 12 -73 19 -157z m-53 45 c-3 -10 -5 -2 -5 17 0 19 2 27 5
18 2 -10 2 -26 0 -35z m9 -64 c-15 -34 -15 -34 -16 -6 0 15 6 27 13 28 8 0 8
2 -2 6 -11 5 -11 7 0 14 20 12 22 -3 5 -42z m-9 -346 c-2 -27 -3 -5 -3 47 0
52 1 74 3 48 2 -27 2 -69 0 -95z m-186 4 c-7 -7 -10 -4 -9 9 1 10 -2 30 -5 44
-4 15 -1 12 9 -9 10 -23 12 -37 5 -44z m399 16 c0 -41 3 -54 10 -43 8 13 10
12 10 -4 0 -24 82 -179 121 -228 26 -33 28 -41 20 -75 -9 -36 -9 -37 -11 -8
-1 17 -4 24 -7 18 -7 -19 -23 -16 -23 4 0 31 -14 2 -17 -34 -2 -31 0 -33 11
-18 12 17 13 17 19 -4 3 -11 1 -19 -3 -16 -13 8 -28 -25 -23 -49 4 -21 4 -21
-12 -1 -9 11 -11 21 -5 23 5 2 3 11 -6 20 -11 11 -13 17 -5 20 18 6 13 30 -11
47 -22 15 -23 15 -29 -17 -3 -20 0 -42 8 -55 8 -14 9 -23 3 -23 -6 0 -13 7
-17 16 -4 11 -14 14 -37 10 -19 -3 -38 0 -49 8 -16 13 -16 14 5 20 19 5 20 8
8 16 -13 8 -12 11 5 25 19 15 19 15 1 26 -13 8 -15 13 -6 19 7 4 -6 12 -34 19
-26 6 -52 20 -60 33 -24 33 -19 45 5 14 23 -30 51 -35 43 -8 -3 9 2 5 11 -10
11 -21 23 -28 45 -28 25 0 30 -4 30 -25 0 -14 4 -25 9 -25 13 0 7 76 -8 94 -7
9 -22 16 -32 16 -20 0 -22 14 -22 100 1 65 29 180 45 180 4 0 8 -26 8 -57z
m170 -138 c7 -33 13 -67 14 -75 5 -32 18 -60 26 -55 4 3 7 -10 6 -28 -1 -24 3
-32 16 -32 10 0 18 -5 17 -10 0 -6 -8 -9 -17 -7 -9 2 -25 4 -34 5 -20 1 -24
13 -7 19 7 2 4 25 -10 66 -20 58 -41 193 -28 182 3 -3 11 -32 17 -65z m-593
33 c-3 -8 -6 -5 -6 6 -1 11 2 17 5 13 3 -3 4 -12 1 -19z m210 0 c-3 -8 -6 -5
-6 6 -1 11 2 17 5 13 3 -3 4 -12 1 -19z m-57 -56 c0 -5 -7 -17 -15 -28 -14
-18 -14 -17 -4 9 12 27 19 34 19 19z m136 -17 c3 -8 14 -17 25 -20 10 -4 19
-11 19 -16 0 -6 -13 -1 -29 10 -16 12 -34 21 -41 21 -6 0 -8 5 -5 10 9 15 25
12 31 -5z m-136 -66 c-7 -11 -14 -18 -17 -15 -3 3 0 12 7 21 18 21 23 19 10
-6z m67 -13 c-3 -8 -1 -17 6 -19 9 -3 8 -8 -3 -21 -13 -17 -14 -17 -21 1 -3
10 -1 26 5 36 13 21 20 22 13 3z m126 -91 c-3 -9 -8 -14 -10 -11 -3 3 -2 9 2
15 9 16 15 13 8 -4z m-113 -36 c0 -11 -3 -19 -6 -19 -13 0 -32 34 -27 47 7 19
33 -3 33 -28z m-549 0 c-5 -13 -10 -19 -10 -12 -1 15 10 45 15 40 3 -2 0 -15
-5 -28z m1056 -17 c-3 -14 -6 -12 -14 8 -6 14 -8 29 -5 34 7 13 24 -22 19 -42z
m-247 28 c0 -5 -5 -10 -11 -10 -5 0 -7 5 -4 10 3 6 8 10 11 10 2 0 4 -4 4 -10z
m-157 -34 c4 -10 1 -13 -10 -9 -8 3 -18 0 -23 -6 -4 -7 -22 -14 -41 -15 -25
-2 -33 -7 -31 -19 4 -21 -7 -21 -32 -2 -27 21 -6 41 45 43 22 1 48 6 57 12 23
13 29 12 35 -4z m-377 -53 c-11 -11 -19 6 -11 24 8 17 8 17 12 0 3 -10 2 -21
-1 -24z m611 15 c-3 -8 -6 -5 -6 6 -1 11 2 17 5 13 3 -3 4 -12 1 -19z m172
-35 c1 -7 -3 -13 -9 -13 -5 0 -10 17 -9 38 1 33 2 34 9 12 4 -14 8 -31 9 -37z
m-229 -27 c0 -8 -5 -18 -11 -22 -8 -5 -8 -8 0 -13 8 -5 4 -14 -11 -27 -18 -15
-20 -15 -9 -2 11 15 11 19 -4 24 -13 5 -14 9 -3 15 9 6 10 9 1 9 -7 0 -20 -14
-28 -30 -14 -27 -14 -31 0 -36 13 -5 12 -11 -7 -38 -12 -17 -25 -33 -28 -36
-3 -3 -6 -9 -7 -15 -1 -5 -6 -21 -13 -35 -9 -21 -10 -17 -6 26 3 29 20 82 40
125 19 41 37 82 40 92 5 16 7 16 26 -3 11 -11 20 -26 20 -34z m-825 35 c3 -5
1 -12 -5 -16 -5 -3 -10 1 -10 9 0 18 6 21 15 7z m475 -12 c0 -6 -4 -7 -10 -4
-5 3 -10 11 -10 16 0 6 5 7 10 4 6 -3 10 -11 10 -16z m225 -31 c14 -6 8 -7
-20 -3 -22 2 -48 5 -57 5 -10 0 -18 5 -18 10 0 12 59 4 95 -12z m-411 -14 c3
-8 2 -12 -4 -9 -6 3 -10 10 -10 16 0 14 7 11 14 -7z m247 -28 c8 4 10 3 5 -4
-11 -18 -24 -14 -36 11 -10 21 -10 21 4 3 8 -10 20 -15 27 -10z m-191 -127
c19 -56 9 -56 -17 1 -13 31 -17 47 -8 44 6 -3 18 -23 25 -45z m474 -54 c-26
-34 -42 -47 -28 -22 9 15 46 57 51 57 2 0 -8 -16 -23 -35z m167 -8 c-10 -9
-11 -8 -5 6 3 10 9 15 12 12 3 -3 0 -11 -7 -18z m-95 -116 c-10 -19 -12 -32
-6 -36 12 -8 13 -25 1 -25 -18 0 -20 32 -4 72 9 23 18 37 20 31 3 -7 -3 -25
-11 -42z m-61 -73 c-9 -42 -13 -48 -31 -48 -8 0 -14 -4 -14 -9 0 -19 -27 -18
-39 1 -11 18 -10 19 7 14 14 -5 26 1 41 20 12 15 21 33 21 40 0 8 5 14 11 14
7 0 8 -12 4 -32z m35 -8 c0 -5 -4 -10 -10 -10 -5 0 -10 5 -10 10 0 6 5 10 10
10 6 0 10 -4 10 -10z m-126 -105 c-4 -8 -11 -12 -16 -9 -6 4 -5 10 3 15 19 12
19 11 13 -6z m89 -40 c-3 -9 -8 -14 -10 -11 -3 3 -2 9 2 15 9 16 15 13 8 -4z
m-253 -19 c0 -2 -7 -9 -15 -16 -13 -11 -14 -10 -9 4 5 14 24 23 24 12z m95
-133 c-3 -16 -11 -32 -17 -38 -8 -7 -9 -4 -4 8 3 10 6 27 6 38 0 10 5 19 11
19 7 0 9 -10 4 -27z m132 -35 c-3 -8 -6 -5 -6 6 -1 11 2 17 5 13 3 -3 4 -12 1
-19z m-170 -96 c-6 -23 -15 -42 -20 -42 -8 0 -4 19 15 69 14 38 18 20 5 -27z
m38 -42 c-3 -5 -12 -10 -18 -10 -7 0 -6 4 3 10 19 12 23 12 15 0z m-67 -35
c-6 -14 -13 -24 -14 -22 -6 6 9 47 17 47 5 0 3 -11 -3 -25z m604 -97 c6 -37
-5 -24 -26 32 l-17 45 20 -25 c11 -13 21 -37 23 -52z m-822 -603 c0 -5 -5 -3
-10 5 -5 8 -10 20 -10 25 0 6 5 3 10 -5 5 -8 10 -19 10 -25z m296 -37 c-9 -12
-16 -19 -16 -15 0 11 24 47 28 42 2 -2 -3 -14 -12 -27z m-159 -20 c-3 -7 -5
-2 -5 12 0 14 2 19 5 13 2 -7 2 -19 0 -25z m47 -229 c-3 -5 -10 -7 -15 -3 -5
3 -7 10 -3 15 3 5 10 7 15 3 5 -3 7 -10 3 -15z m-48 -167 c-10 -2 -22 0 -28 6
-6 6 0 7 19 4 21 -5 23 -7 9 -10z m-189 -24 c-3 -8 -6 -5 -6 6 -1 11 2 17 5
13 3 -3 4 -12 1 -19z m313 1 c22 -13 1 -10 -55 6 l-50 15 45 -6 c25 -4 52 -10
60 -15z m160 -19 c0 -13 -30 -13 -50 0 -11 7 -7 10 18 10 17 0 32 -4 32 -10z
m-240 -24 c0 -11 -19 -15 -25 -6 -3 5 1 10 9 10 9 0 16 -2 16 -4z m100 -82
c44 -12 45 -12 11 -13 -46 -1 -164 19 -176 30 -12 12 106 0 165 -17z m204 15
c-3 -5 7 -11 21 -15 14 -3 25 -10 25 -16 0 -11 -74 1 -78 13 -2 5 -10 9 -18 9
-9 0 -13 -4 -10 -9 3 -5 -6 -8 -20 -8 -18 0 -24 4 -19 14 3 11 1 13 -10 9 -8
-3 -15 -1 -15 4 0 4 29 8 65 8 35 -1 62 -5 59 -9z m-523 -36 c-8 -15 -10 -15
-11 -2 0 17 10 32 18 25 2 -3 -1 -13 -7 -23z m615 -10 c-4 -4 -11 -1 -16 7
-16 25 -11 35 7 17 9 -9 13 -20 9 -24z m-702 -14 c-8 -13 -24 -1 -24 18 0 13
3 13 15 3 8 -7 12 -16 9 -21z m767 22 c4 -1 10 -9 13 -18 8 -19 -10 -34 -31
-26 -10 4 -11 9 -2 19 9 11 7 14 -10 14 -11 0 -21 4 -21 10 0 5 10 8 23 6 12
-3 25 -5 28 -5z m-114 -17 c-3 -3 -12 -4 -19 -1 -8 3 -5 6 6 6 11 1 17 -2 13
-5z m205 -18 c12 -18 9 -26 -11 -26 -10 0 -33 -3 -50 -6 -20 -4 -31 -3 -31 5
0 6 9 11 19 11 14 0 18 5 14 21 -5 18 -2 19 23 13 16 -4 32 -12 36 -18z m-362
-31 c0 -8 -4 -17 -10 -20 -6 -4 -10 5 -10 20 0 15 4 24 10 20 6 -3 10 -12 10
-20z m154 -10 c11 -8 16 -18 13 -22 -8 -8 -57 17 -57 29 0 13 23 9 44 -7z
m-89 -13 c-3 -3 -11 0 -18 7 -9 10 -8 11 6 5 10 -3 15 -9 12 -12z m221 -16
c21 -16 16 -30 -9 -20 -16 6 -32 34 -19 34 5 0 17 -6 28 -14z m-675 -28 c-3
-21 -6 -26 -9 -15 -3 17 3 47 11 47 2 0 1 -15 -2 -32z m759 7 c7 -9 11 -18 8
-20 -8 -9 -36 5 -42 21 -7 19 18 18 34 -1z m-846 -36 c-8 -14 -24 -10 -24 6 0
9 6 12 15 9 8 -4 12 -10 9 -15z m621 0 c44 -7 75 -14 69 -16 -15 -5 -205 24
-213 33 -3 4 10 4 29 1 19 -3 71 -11 115 -18z m142 -15 c-3 -3 -12 -4 -19 -1
-8 3 -5 6 6 6 11 1 17 -2 13 -5z m134 -52 c-11 -2 -28 2 -38 8 -16 10 -15 10
5 5 17 -5 22 -2 22 12 1 17 2 16 16 -2 14 -18 13 -20 -5 -23z m-594 -18 c-3
-3 -12 -4 -19 -1 -8 3 -5 6 6 6 11 1 17 -2 13 -5z m608 -4 c-3 -5 -11 -10 -16
-10 -6 0 -7 5 -4 10 3 6 11 10 16 10 6 0 7 -4 4 -10z m-829 -37 c-11 -11 -17
4 -9 23 7 18 8 18 11 1 2 -10 1 -21 -2 -24z m-90 -10 c-10 -10 -19 5 -10 18 6
11 8 11 12 0 2 -7 1 -15 -2 -18z m613 -9 c8 -2 12 -7 9 -9 -8 -8 -108 17 -103
26 5 6 48 -1 94 -17z m123 -13 c13 -5 36 -12 52 -16 15 -3 26 -8 23 -11 -5 -6
-115 21 -125 30 -9 9 25 7 50 -3z m-192 -35 c-7 -7 -14 -6 -21 1 -9 9 -7 12 9
10 14 -1 18 -5 12 -11z m320 -7 c0 -6 -4 -7 -10 -4 -5 3 -10 11 -10 16 0 6 5
7 10 4 6 -3 10 -11 10 -16z m-697 -76 c-13 -2 -33 -2 -45 0 -13 2 -3 4 22 4
25 0 35 -2 23 -4z m-423 -33 c0 -5 -5 -10 -11 -10 -5 0 -7 5 -4 10 3 6 8 10
11 10 2 0 4 -4 4 -10z m-20 -35 c0 -8 -4 -17 -10 -20 -5 -3 -10 -1 -10 4 0 6
-4 11 -10 11 -5 0 -9 -5 -7 -11 1 -6 -4 -14 -11 -16 -18 -7 -10 41 8 48 20 8
40 0 40 -16z m69 -9 c0 -11 -3 -15 -6 -8 -3 9 -9 10 -18 2 -9 -8 -14 -6 -17 7
-4 13 1 18 19 19 18 2 23 -3 22 -20z m127 -5 c-3 -5 -15 -7 -26 -4 -28 7 -25
13 6 13 14 0 23 -4 20 -9z m-63 -28 c-7 -2 -19 -2 -25 0 -7 3 -2 5 12 5 14 0
19 -2 13 -5z m75 -10 c-10 -2 -28 -2 -40 0 -13 2 -5 4 17 4 22 1 32 -1 23 -4z
m65 -10 c-7 -2 -21 -2 -30 0 -10 3 -4 5 12 5 17 0 24 -2 18 -5z m165 -10 c-16
-2 -40 -2 -55 0 -16 2 -3 4 27 4 30 0 43 -2 28 -4z m-418 -31 c0 -5 -7 -9 -15
-9 -8 0 -12 4 -9 9 3 4 9 8 15 8 5 0 9 -4 9 -8z m130 -22 c0 -5 -4 -10 -10
-10 -5 0 -10 5 -10 10 0 6 5 10 10 10 6 0 10 -4 10 -10z m57 -96 c-3 -3 -12
-4 -19 -1 -8 3 -5 6 6 6 11 1 17 -2 13 -5z m96 -1 c-7 -2 -19 -2 -25 0 -7 3
-2 5 12 5 14 0 19 -2 13 -5z m-278 -94 c17 1 37 -4 45 -9 10 -7 -14 -9 -80 -6
-52 2 -97 5 -100 7 -12 5 67 16 85 12 11 -3 34 -4 50 -4z m188 -36 c-13 -2
-35 -2 -50 0 -16 2 -5 4 22 4 28 0 40 -2 28 -4z m150 -250 c-7 -2 -21 -2 -30
0 -10 3 -4 5 12 5 17 0 24 -2 18 -5z m132 -3 c7 -12 -15 -12 -70 -1 l-40 9 52
1 c28 0 55 -3 58 -9z m109 -16 c4 -9 4 -19 1 -22 -3 -3 -5 0 -5 6 0 7 -9 12
-19 12 -11 0 -23 5 -26 10 -3 6 5 10 18 10 14 0 28 -7 31 -16z m76 3 c0 -17
-52 -16 -58 1 -2 8 7 12 27 12 19 0 31 -5 31 -13z"/>
<path d="M2485 4120 c-8 -13 3 -30 18 -30 8 0 7 3 -2 9 -7 5 -10 14 -7 20 4 6
5 11 2 11 -3 0 -8 -4 -11 -10z"/>
<path d="M2630 3958 c0 -9 5 -20 10 -23 16 -10 12 -23 -7 -27 -15 -3 -14 -6 6
-17 24 -13 24 -13 18 24 -7 40 -27 72 -27 43z"/>
<path d="M2686 3900 c13 -46 44 -113 50 -107 9 8 -13 67 -37 102 -19 28 -20
28 -13 5z"/>
<path d="M2670 3850 c0 -5 5 -10 11 -10 5 0 7 5 4 10 -3 6 -8 10 -11 10 -2 0
-4 -4 -4 -10z"/>
<path d="M2700 3723 c0 -7 32 -32 43 -33 17 0 5 18 -18 28 -14 6 -25 9 -25 5z"/>
</g>
</svg>
